# xmcd
#
# Track frame offsets:
#	183
#	13273
#	26285
#	39690
#	50175
#	63073
#	74348
#	87575
#	103353
#	115715
#	127850
#	139033
#	149968
#	164005
#	177833
#	191058
#	201090
#	214283
#	227808
#	240303
#
# Disc length: 3369
#
# Revision: 2
# Processed by: cddbd v1.5.1PL0 Copyright (c) Steve Scherf et al.
# Submitted via: CDValet v3.31 - Copyright (c) 1997 Greg Leichner
# Normalized: r1:DSETVAR1,TDELIM( - )
#
DISCID=310d2714
DTITLE=Various Artist - Play Me The Blues... The Legendary Blues Singers
DYEAR=1900
DGENRE=
TTITLE0=Muddy Waters - Mannish Boy
TTITLE1=Elmore James - Dust My Broom
TTITLE2=Lightnin' Hopkins - Mojo Hand
TTITLE3=Howlin' Wolf - Who's Been Talking
TTITLE4=B.B. King - The Woman I Love
TTITLE5=Little Walter - My Baby
TTITLE6=Muddy Waters - I Feel So Good
TTITLE7=Lightnin' Hopkins - Coffee For Mama
TTITLE8=John Lee Hooker - Hobo Blues
TTITLE9=Elmore James - Mean Mistreatin' Mama
TTITLE10=John Lee Hooker - Boom Boom
TTITLE11=Howlin' Wolf - You'll Be Mine
TTITLE12=B.B. King - Whole Lotta Love
TTITLE13=Little Walter - Blues With A Feeling
TTITLE14=Howlin' Wolf - Tell Me
TTITLE15=John Lee Hooker - Dimples
TTITLE16=Muddy Waters - She Moves Me
TTITLE17=B.B. King - Three O'Clock Blues
TTITLE18=Elmore James - Standing At The Crossroads
TTITLE19=John Lee Hooker - Trouble Blues
EXTD=
EXTT0=
EXTT1=
EXTT2=
EXTT3=
EXTT4=
EXTT5=
EXTT6=
EXTT7=
EXTT8=
EXTT9=
EXTT10=
EXTT11=
EXTT12=
EXTT13=
EXTT14=
EXTT15=
EXTT16=
EXTT17=
EXTT18=
EXTT19=
PLAYORDER=
